<?xml version="1.0" encoding="UTF-8"?>
<svg id="Layer_2" data-name="Layer 2" xmlns="http://www.w3.org/2000/svg" viewBox="0 0 801.77 137.1">
  <g id="Layer_1-2" data-name="Layer 1">
    <g>
      <path d="m34.54,40.35c0,4.95.9,5.55,2.7,5.55,3.15,0,9.45-5.85,12-8.7,7.95-8.85,16.65-18.15,21.45-25.2,1.35-1.95,1.95-3.3,1.95-3.9s-.6-1.65-2.55-1.95l-5.25-.9c-1.65-1.05-1.35-4.65.6-5.25,7.65.3,13.2.45,18.6.45s12.15-.15,18.15-.45c1.8.6,1.95,4.05.75,5.25-5.25.6-9.75,1.35-12.9,2.7-6,2.4-12.45,8.1-22.2,19.2l-6.9,7.8c-1.5,1.65-1.95,2.85-1.95,3.45,0,.75.9,2.55,5.4,9.3,7.5,11.25,16.35,25.65,26.55,39.15,4.05,5.4,6.9,6.45,11.1,7.05l4.8.75c.9,1.35.9,4.5-.45,5.25-7.5-.3-14.7-.45-21.6-.45-7.65,0-15.15.15-23.55.45-1.95-.6-1.95-4.35-.3-5.25l3.75-.9c1.65-.45,2.55-.9,2.55-1.5s-.3-1.65-1.2-3l-8.7-13.35-7.95-12.15c-5.4-8.25-7.95-11.85-11.25-11.85s-3.6,2.1-3.6,10.2v15.75c0,13.95.9,15.3,7.65,16.2l4.2.6c1.2,1.05,1.2,4.35,0,5.25-7.95-.3-15.45-.45-22.65-.45-6.75,0-14.55.15-22.5.45-1.2-.9-1.2-4.35,0-5.25l4.2-.6c6.75-.9,7.65-2.25,7.65-16.2V22.05c0-13.95-.9-15.3-7.65-16.2l-4.2-.6C-.41,4.35-.41.9,1.24,0c7.5.3,15,.45,22.5.45s14.7-.15,22.65-.45c1.35.9,1.35,4.35,0,5.25l-4.2.6c-6.75.9-7.65,2.25-7.65,16.2v18.3Z"/>
      <path d="m159.78,78.9c-.6,10.2,3.75,12.9,6.75,12.9,1.8,0,3.3-.45,5.7-1.8,1.35.3,2.25,2.1,1.8,3.45-1.8,2.4-8.85,8.1-17.4,8.1-5.25,0-8.55-1.8-12.6-5.25-1.05-.9-1.65-1.2-2.4-1.2s-1.65.6-3.15,1.65c-2.7,1.95-7.2,4.8-12.75,4.8-8.7,0-16.8-5.25-16.8-15.75,0-7.65,4.65-12.3,15.6-15.6,5.7-1.8,9.9-3,14.1-4.2,2.7-.75,3.45-1.8,3.6-3,.15-1.65.3-3.3.3-5.1,0-5.7-2.25-12.9-8.7-12.9-3.6,0-6.75,2.1-7.8,8.55-.3,2.4-1.2,3.75-2.55,4.8-2.25,1.65-8.1,3.45-10.8,3.45-2.55,0-3.45-1.65-3.45-3.75,0-3.9,3.6-8.7,7.2-11.55,5.1-4.05,14.55-9.15,25.2-9.15,12.6,0,19.95,6.3,19.2,21.75l-1.05,19.8Zm-18-3.9c.15-2.4,0-2.85-1.05-2.7-6.75.9-12.6,3.45-12.6,10.5,0,4.8,3.45,9,7.65,9,4.65,0,5.55-2.7,5.7-7.35l.3-9.45Z"/>
      <path d="m176.59,96.9c-1.65-3-2.7-10.2-2.4-16.95.9-1.5,4.2-1.65,5.1-.3,1.95,6.15,7.65,15,15.3,15,4.5,0,7.8-2.7,7.8-7.8,0-5.55-4.8-8.7-9.9-11.25-9-4.5-15.45-9.9-15.45-18.9,0-13.05,10.95-19.35,23.85-19.35,7.65,0,14.4,1.95,16.05,3.15,1.5,3.3,2.25,9.3,2.25,15-.6,1.65-4.35,1.65-5.25.6-3-8.7-6.75-11.85-11.7-11.85-4.35,0-7.5,2.55-7.5,6.6,0,3.45,2.85,6.3,9.6,9.6,10.2,4.95,16.5,11.25,16.5,21-.15,13.35-11.55,20.1-25.65,20.1-8.55,0-14.55-1.5-18.6-4.65Z"/>
      <path d="m251.28,63.9c-3.45,0-3.75.3-3.75,2.7,0,11.25,7.2,22.2,21.15,22.2,4.2,0,9.9-.9,13.95-7.8,1.65-.3,3.9.9,3.9,3.45-6.15,12.75-17.25,17.1-26.25,17.1-20.25,0-31.2-14.25-31.2-30.6,0-18.9,13.65-33.6,32.4-33.6,15.6,0,24,10.05,24,21.6,0,2.85-.75,4.95-5.4,4.95h-28.8Zm9.9-6.6c2.1,0,4.5-.3,6.15-1.35.75-.45,1.05-1.95,1.05-3.45,0-4.95-2.85-8.25-7.95-8.25-6.3,0-11.7,6-11.7,10.8,0,2.1,2.1,2.25,6.9,2.25h5.55Z"/>
      <path d="m285.63,44.25c-1.05-1.05-1.05-4.65.45-5.25,5.4.3,11.85.45,19.8.45,5.55,0,11.25-.15,16.8-.45,1.5.6,1.65,4.2.45,5.25l-3,.6c-4.2.9-4.5,1.5-4.5,2.85,0,1.8,1.65,5.7,4.5,13.35,1.65,4.2,4.95,13.35,6.75,17.1,1.65-3.15,3.15-6.6,4.65-9.9l2.7-6.15c3.15-7.2,5.55-13.5,5.55-15.15,0-1.05-1.5-1.8-3.3-2.1l-3-.6c-1.35-1.05-1.2-4.8.45-5.25,3.3.3,7.8.45,14.55.45,3.9,0,7.8-.15,11.7-.45,1.5.6,1.65,4.35.3,5.25l-2.85.3c-3,.3-5.55,1.5-6.9,3.3-1.8,2.4-5.55,8.85-8.85,15.75l-7.95,16.35-22.8,47.25c-3.15,6.75-7.35,9.75-12.9,9.9-8.1.15-9.6-4.95-9.6-9,0-4.5,3.3-7.8,8.55-7.8h3.6c3.6,0,5.85-1.2,7.35-3.15,1.65-2.25,2.85-5.1,4.35-8.25.9-1.8,2.1-4.5,2.1-6.3,0-1.95-.45-4.8-2.85-10.95l-14.4-36.3c-2.85-7.2-4.2-9.9-9-10.65l-2.7-.45Z"/>
      <path d="m431.43,74.55c0,7.05.6,11.85,2.55,14.25,1.95,2.55,4.65,3.75,15.6,3.75,13.65,0,17.85-.45,26.7-17.85,1.2-1.5,4.65-.9,5.7.9-.75,7.8-4.35,20.25-6.45,24.3-7.95-.3-22.35-.45-34.65-.45h-20.1c-6.9,0-14.4.15-23.7.45-1.35-.9-1.65-4.35-.45-5.25l5.7-.75c6.75-.9,7.65-2.1,7.65-16.05V22.05c0-13.95-.9-15.3-7.65-16.2l-4.35-.6c-1.5-.9-1.5-4.35.3-5.25,7.8.3,15.3.45,22.5.45s14.7-.15,22.2-.45c1.2.9,1.2,4.35,0,5.25l-3.9.6c-6.75,1.05-7.65,2.25-7.65,16.2v52.5Z"/>
      <path d="m536.28,78.9c-.6,10.2,3.75,12.9,6.75,12.9,1.8,0,3.3-.45,5.7-1.8,1.35.3,2.25,2.1,1.8,3.45-1.8,2.4-8.85,8.1-17.4,8.1-5.25,0-8.55-1.8-12.6-5.25-1.05-.9-1.65-1.2-2.4-1.2s-1.65.6-3.15,1.65c-2.7,1.95-7.2,4.8-12.75,4.8-8.7,0-16.8-5.25-16.8-15.75,0-7.65,4.65-12.3,15.6-15.6,5.7-1.8,9.9-3,14.1-4.2,2.7-.75,3.45-1.8,3.6-3,.15-1.65.3-3.3.3-5.1,0-5.7-2.25-12.9-8.7-12.9-3.6,0-6.75,2.1-7.8,8.55-.3,2.4-1.2,3.75-2.55,4.8-2.25,1.65-8.1,3.45-10.8,3.45-2.55,0-3.45-1.65-3.45-3.75,0-3.9,3.6-8.7,7.2-11.55,5.1-4.05,14.55-9.15,25.2-9.15,12.6,0,19.95,6.3,19.2,21.75l-1.05,19.8Zm-18-3.9c.15-2.4,0-2.85-1.05-2.7-6.75.9-12.6,3.45-12.6,10.5,0,4.8,3.45,9,7.65,9,4.65,0,5.55-2.7,5.7-7.35l.3-9.45Z"/>
      <path d="m604.98,39.9c1.95,1.65,3.15,3.75,3.15,7.8,0,4.5-2.1,8.55-3.9,8.55-.75,0-2.1-.3-2.4-.75-4.2-6-10.05-11.25-15.45-11.25-9.75,0-15,11.1-15,21.45,0,11.85,7.65,23.85,21.45,23.85,5.55,0,10.05-1.8,13.35-7.35,1.8-.15,3.9.9,3.9,3.3-3.3,7.5-12.3,16.05-26.55,16.05-18.9,0-31.8-12.6-31.8-30.3,0-21.3,17.25-33.9,37.5-33.9,5.1,0,11.7,1.05,15.75,2.55Z"/>
      <path d="m614.13,70.65c-.15-21.45,16.8-33.3,34.5-33.3s33.6,10.8,33.6,31.95-16.05,32.25-34.5,32.25-33.45-10.2-33.6-30.9Zm21.6-3.3c0,15.75,4.95,27.3,13.65,27.3s11.4-9.75,11.25-23.25c-.15-14.55-4.35-27.15-12.9-27.15-6.6,0-12,6.75-12,23.1Z"/>
      <path d="m699.48,59.7c0-6,0-7.8-2.85-9.6l-2.1-1.35c-1.05-.9-1.05-3.6,0-4.5,6.9-1.95,17.25-6,21.9-9,1.2,0,2.1.45,2.7,1.35-.3,3-.6,5.1-.6,6.45,0,1.05.3,1.5,1.5,1.8,4.05-2.55,8.4-7.5,14.7-7.5,4.05,0,8.25,3.15,8.25,8.85,0,6.9-4.8,9.75-9.6,9.75-2.1,0-3.9-.9-5.85-2.7-3.45-2.85-4.8-3-5.7-3-2.1,0-2.85,3.3-2.85,9v22.8c0,10.5.6,11.7,5.55,12.15l4.8.45c1.2.9,1.2,4.35-.15,5.25-7.2-.3-13.2-.45-20.25-.45-6.15,0-12.75.15-17.7.45-1.35-.9-1.35-4.35-.15-5.25l2.85-.3c4.95-.45,5.55-1.8,5.55-12.3v-22.35Z"/>
      <path d="m766.53,63.9c-3.45,0-3.75.3-3.75,2.7,0,11.25,7.2,22.2,21.15,22.2,4.2,0,9.9-.9,13.95-7.8,1.65-.3,3.9.9,3.9,3.45-6.15,12.75-17.25,17.1-26.25,17.1-20.25,0-31.2-14.25-31.2-30.6,0-18.9,13.65-33.6,32.4-33.6,15.6,0,24,10.05,24,21.6,0,2.85-.75,4.95-5.4,4.95h-28.8Zm9.9-6.6c2.1,0,4.5-.3,6.15-1.35.75-.45,1.05-1.95,1.05-3.45,0-4.95-2.85-8.25-7.95-8.25-6.3,0-11.7,6-11.7,10.8,0,2.1,2.1,2.25,6.9,2.25h5.55Z"/>
    </g>
  </g>
</svg>